<?xml version="1.0" encoding="UTF-8"?>
<svg id="Camada_1" data-name="Camada 1" xmlns="http://www.w3.org/2000/svg" xmlns:xlink="http://www.w3.org/1999/xlink" viewBox="0 0 1000 1000">
  <defs>
    <style>
      .cls-1 {
        fill: url(#Gradiente_sem_nome_5);
      }

      .cls-2 {
        clip-path: url(#clippath-4);
      }

      .cls-3 {
        fill: none;
      }

      .cls-4 {
        fill: url(#Gradiente_sem_nome_5-5);
      }

      .cls-5 {
        clip-path: url(#clippath-1);
      }

      .cls-6 {
        clip-path: url(#clippath-5);
      }

      .cls-7 {
        clip-path: url(#clippath-3);
      }

      .cls-8 {
        fill: url(#Gradiente_sem_nome_5-4);
      }

      .cls-9 {
        clip-path: url(#clippath-2);
      }

      .cls-10 {
        fill: url(#Gradiente_sem_nome_5-3);
      }

      .cls-11 {
        fill: url(#Gradiente_sem_nome_5-2);
      }

      .cls-12 {
        clip-path: url(#clippath);
      }
    </style>
    <clipPath id="clippath">
      <rect class="cls-3" width="1000" height="1000"/>
    </clipPath>
    <clipPath id="clippath-1">
      <path class="cls-3" d="M66.02,619.4l134.35-134.35c.79-40.1,10.17-77.51,26.1-111.18,1.02-2.17,2.07-4.32,3.16-6.46,14.06-27.83,32.63-52.99,54.52-74.85,2.52-2.52,5.09-5,7.7-7.43,9.94-9.27,20.49-17.88,31.55-25.78,1.53-1.11,3.07-2.19,4.62-3.26,1.37-.94,2.75-1.88,4.14-2.8,1.59-1.06,3.18-2.1,4.79-3.13,2-1.28,4.02-2.55,6.06-3.79,2.68-1.64,5.39-3.24,8.12-4.78,17.96-10.27,36.91-18.8,56.49-25.42.76-.26,1.51-.51,2.27-.76,20.84-6.88,42.38-11.61,64.18-13.95,2.13-.23,4.27-.44,6.41-.62,58.73-5.05,119.06,7.23,172.67,41.15-13.14,13.14-34.54,34.54-61.38,61.39-.63.62-1.25,1.25-1.88,1.88s-1.27,1.26-1.9,1.9c-1.28,1.27-2.56,2.55-3.85,3.85-.65.64-1.3,1.29-1.95,1.95-1.31,1.3-2.63,2.62-3.95,3.95-.67.66-1.33,1.33-2,2-4.69,4.68-9.5,9.5-14.43,14.43-.71.71-1.41,1.41-2.12,2.12-.71.71-1.43,1.42-2.14,2.14-.71.71-1.43,1.43-2.15,2.15-.72.72-1.44,1.44-2.16,2.16-.73.73-1.45,1.45-2.18,2.18-.73.73-1.46,1.46-2.19,2.19l-4.42,4.42c-1.48,1.48-2.97,2.97-4.47,4.47s-3.01,3.01-4.52,4.52c-1.52,1.52-3.04,3.04-4.57,4.57l-4.62,4.62c-3.09,3.08-6.21,6.21-9.36,9.36-1.58,1.57-3.16,3.15-4.74,4.74-4.77,4.76-9.59,9.58-14.46,14.46-1.63,1.62-3.26,3.25-4.89,4.89-35.99,35.98-74.59,74.59-112.81,112.81-1.73,1.73-3.45,3.45-5.18,5.18l-5.18,5.18c-5.17,5.16-10.33,10.32-15.47,15.47l-3.9,3.9c-2.12,2.12-4.24,4.23-6.35,6.35l-4.06,4.06c-3.75,3.75-7.48,7.48-11.2,11.2l-5.04,5.04c-1.68,1.68-3.35,3.35-5.02,5.02-1.47,1.47-2.94,2.94-4.4,4.4-8.65,8.64-17.17,17.17-25.53,25.53-1.62,1.61-3.23,3.22-4.83,4.83-1.46,1.46-2.92,2.92-4.37,4.37-1.59,1.58-3.17,3.16-4.74,4.74-11.29,11.29-22.24,22.24-32.75,32.75-9.25,9.25-18.16,18.15-26.65,26.65-.68.67-1.34,1.34-2.01,2.01-1.53,1.53-3.04,3.04-4.54,4.54-.66.65-1.31,1.31-1.96,1.96-.46.46-.91.91-1.37,1.37-.65.64-1.29,1.29-1.93,1.93-1.92,1.92-3.81,3.81-5.68,5.68l-1.86,1.86c-8.03,8.03-15.55,15.55-22.49,22.49l-1.59,1.59c-.53.53-1.05,1.05-1.57,1.57-.53.52-1.04,1.04-1.56,1.56-1.7,1.7-3.35,3.35-4.97,4.97-.49.49-.98.97-1.46,1.46-1.3,1.3-2.58,2.58-3.84,3.84-.46.46-.92.92-1.38,1.38-.46.46-.9.9-1.35,1.35-.45.45-.9.9-1.34,1.34l-1.31,1.31c-.44.44-.86.86-1.29,1.29-.42.42-.84.84-1.26,1.26-.42.42-.83.83-1.24,1.24-1.64,1.64-3.21,3.21-4.72,4.72l-1.12,1.12c-2.22,2.22-4.29,4.29-6.19,6.19l-.94.94c-.94.94-1.82,1.82-2.67,2.67,246.84,353.37,820.4,171.38,816.3-261.45,0-41.34-5.57-81.38-16.02-119.4l-134.35,134.35c-.79,40.1-10.17,77.51-26.1,111.18-1.02,2.17-2.07,4.32-3.16,6.46-14.06,27.83-32.63,52.99-54.52,74.85-2.52,2.52-5.09,5-7.7,7.43-9.94,9.27-20.49,17.88-31.55,25.78-1.53,1.11-3.07,2.19-4.62,3.26-1.37.94-2.75,1.88-4.14,2.8-1.59,1.06-3.18,2.1-4.79,3.13-2,1.28-4.02,2.55-6.06,3.79-2.68,1.64-5.39,3.24-8.12,4.78-37.73,21.55-79.82,35.49-122.94,40.13-2.13.23-4.27.44-6.41.62-58.73,5.05-119.06-7.23-172.67-41.15L866.3,238.56c-95.12-131.39-226.72-188.04-356.56-188.03-269.07.02-530.53,243.3-443.72,568.87"/>
    </clipPath>
    <linearGradient id="Gradiente_sem_nome_5" data-name="Gradiente sem nome 5" x1="0" y1="1000.04" x2="1" y2="1000.04" gradientTransform="translate(898224.58 948.26) rotate(-90) scale(897.73 -897.73)" gradientUnits="userSpaceOnUse">
      <stop offset="0" stop-color="#523b8c"/>
      <stop offset="1" stop-color="#76227c"/>
    </linearGradient>
    <clipPath id="clippath-2">
      <path class="cls-3" d="M226.47,373.87c1.03-2.17,2.08-4.32,3.16-6.46-1.09,2.14-2.14,4.29-3.16,6.46"/>
    </clipPath>
    <linearGradient id="Gradiente_sem_nome_5-2" data-name="Gradiente sem nome 5" x1="0" y1="1000" x2="1" y2="1000" gradientTransform="translate(6688.07 373.87) rotate(-90) scale(6.46 -6.46)" xlink:href="#Gradiente_sem_nome_5"/>
    <clipPath id="clippath-3">
      <path class="cls-3" d="M343.01,246.37c2.68-1.64,5.39-3.23,8.12-4.78-2.73,1.54-5.44,3.14-8.12,4.78"/>
    </clipPath>
    <linearGradient id="Gradiente_sem_nome_5-3" data-name="Gradiente sem nome 5" y1="1000" x2="1" y2="1000" gradientTransform="translate(5127.1 246.37) rotate(-90) scale(4.78 -4.78)" xlink:href="#Gradiente_sem_nome_5"/>
    <clipPath id="clippath-4">
      <path class="cls-3" d="M648.87,758.41c2.73-1.54,5.44-3.14,8.12-4.78-2.68,1.64-5.39,3.23-8.12,4.78"/>
    </clipPath>
    <linearGradient id="Gradiente_sem_nome_5-4" data-name="Gradiente sem nome 5" x1="0" y1="1000" y2="1000" gradientTransform="translate(5432.9 758.41) rotate(-90) scale(4.78 -4.78)" xlink:href="#Gradiente_sem_nome_5"/>
    <clipPath id="clippath-5">
      <path class="cls-3" d="M770.37,632.59c1.09-2.14,2.14-4.29,3.16-6.46-1.03,2.17-2.08,4.32-3.16,6.46"/>
    </clipPath>
    <linearGradient id="Gradiente_sem_nome_5-5" data-name="Gradiente sem nome 5" x1="0" y1="1000" x2="1" y2="1000" gradientTransform="translate(7231.91 632.59) rotate(-90) scale(6.46 -6.46)" xlink:href="#Gradiente_sem_nome_5"/>
  </defs>
  <g class="cls-12">
    <g class="cls-5">
      <rect class="cls-1" x="-20.79" y="50.52" width="974.89" height="1064.3"/>
    </g>
    <g class="cls-9">
      <rect class="cls-11" x="226.47" y="367.41" width="3.16" height="6.46"/>
    </g>
    <g class="cls-7">
      <rect class="cls-10" x="343.01" y="241.59" width="8.12" height="4.78"/>
    </g>
    <g class="cls-2">
      <rect class="cls-8" x="648.87" y="753.63" width="8.12" height="4.78"/>
    </g>
    <g class="cls-6">
      <rect class="cls-4" x="770.37" y="626.13" width="3.16" height="6.46"/>
    </g>
  </g>
</svg>